<svg width="1024" height="1024" viewBox="0 0 1024 1024" fill="none" xmlns="http://www.w3.org/2000/svg">
<path d="M236.52 502L193.64 357.548H192.568C192.925 361.121 193.283 366.303 193.64 373.092C193.997 379.703 194.355 386.849 194.712 394.532C195.069 402.036 195.248 409.093 195.248 415.704V502H154.512V310.648H216.152L258.764 452.152H259.836L303.788 310.648H365.16V502H322.816V414.632C322.816 408.557 322.905 401.857 323.084 394.532C323.441 387.028 323.709 379.971 323.888 373.36C324.245 366.571 324.513 361.389 324.692 357.816H323.62L279.4 502H236.52ZM479.623 351.92C498.741 351.92 513.57 356.387 524.111 365.32C534.653 374.075 539.923 387.117 539.923 404.448V502H508.567L499.723 482.168H498.651C494.542 487.349 490.254 491.637 485.787 495.032C481.499 498.427 476.497 500.839 470.779 502.268C465.241 503.876 458.362 504.68 450.143 504.68C441.567 504.68 433.795 502.983 426.827 499.588C420.038 496.193 414.678 491.012 410.747 484.044C406.817 477.076 404.851 468.232 404.851 457.512C404.851 441.789 410.301 430.176 421.199 422.672C432.277 415.168 448.446 410.969 469.707 410.076L494.899 409.272V404.984C494.899 397.837 493.023 392.656 489.271 389.44C485.698 386.224 480.695 384.616 474.263 384.616C467.831 384.616 461.131 385.688 454.163 387.832C447.195 389.797 440.138 392.299 432.991 395.336L419.323 365.32C427.363 361.032 436.475 357.727 446.659 355.404C456.843 353.081 467.831 351.92 479.623 351.92ZM481.231 435.536C469.975 435.893 462.114 437.948 457.647 441.7C453.181 445.273 450.947 450.187 450.947 456.44C450.947 461.979 452.555 465.999 455.771 468.5C458.987 471.001 463.097 472.252 468.099 472.252C475.603 472.252 481.946 470.019 487.127 465.552C492.309 460.907 494.899 454.653 494.899 446.792V435L481.231 435.536ZM651.487 468.768C656.132 468.768 660.42 468.321 664.351 467.428C668.281 466.535 672.301 465.373 676.411 463.944V497.176C671.587 499.32 666.048 501.107 659.795 502.536C653.541 503.965 646.127 504.68 637.551 504.68C628.439 504.68 620.309 503.251 613.163 500.392C606.195 497.355 600.656 492.263 596.547 485.116C592.616 477.791 590.651 467.696 590.651 454.832V388.636H571.891V369.876L594.403 355.404L606.731 324.316H635.675V354.868H674.803V388.636H635.675V453.224C635.675 458.405 637.104 462.336 639.963 465.016C642.821 467.517 646.663 468.768 651.487 468.768ZM756.352 333.964C756.352 342.897 756.084 350.937 755.548 358.084C755.012 365.052 754.565 370.144 754.208 373.36H756.62C759.836 368.179 763.499 364.069 767.608 361.032C771.717 357.995 776.363 355.761 781.544 354.332C786.725 352.903 792.264 352.188 798.16 352.188C808.344 352.188 817.367 354.064 825.228 357.816C833.089 361.568 839.253 367.375 843.72 375.236C848.365 383.097 850.688 393.371 850.688 406.056V502H805.396V418.652C805.396 408.289 803.699 400.607 800.304 395.604C797.088 390.423 791.817 387.832 784.492 387.832C777.345 387.832 771.717 389.708 767.608 393.46C763.499 397.033 760.551 402.304 758.764 409.272C757.156 416.24 756.352 424.816 756.352 435V502H711.06V298.32H756.352V333.964ZM213.472 538.648C230.803 538.648 245.096 540.792 256.352 545.08C267.787 549.189 276.363 555.532 282.08 564.108C287.797 572.505 290.656 583.047 290.656 595.732C290.656 603.951 289.137 611.276 286.1 617.708C283.063 624.14 278.953 629.768 273.772 634.592C268.769 639.416 262.963 643.436 256.352 646.652L312.364 730H261.176L218.028 658.176H200.072V730H154.512V538.648H213.472ZM211.596 574.56H200.072V622.532H211.596C218.921 622.532 224.996 621.728 229.82 620.12C234.644 618.333 238.217 615.564 240.54 611.812C243.041 607.881 244.292 603.057 244.292 597.34C244.292 592.159 243.131 587.96 240.808 584.744C238.485 581.349 234.912 578.848 230.088 577.24C225.264 575.453 219.1 574.56 211.596 574.56ZM382.304 582.868V730H337.28V582.868H382.304ZM360.06 524.444C366.492 524.444 372.12 525.873 376.944 528.732C381.768 531.591 384.18 537.129 384.18 545.348C384.18 553.388 381.768 558.927 376.944 561.964C372.12 564.823 366.492 566.252 360.06 566.252C353.27 566.252 347.464 564.823 342.64 561.964C337.994 558.927 335.672 553.388 335.672 545.348C335.672 537.129 337.994 531.591 342.64 528.732C347.464 525.873 353.27 524.444 360.06 524.444ZM475.421 580.188C485.069 580.188 493.288 582.064 500.077 585.816C506.866 589.568 512.494 594.749 516.961 601.36H518.033L521.517 582.868H560.109V730.268C560.109 744.204 557.34 755.907 551.801 765.376C546.262 774.845 537.865 781.992 526.609 786.816C515.353 791.819 501.238 794.32 484.265 794.32C473.188 794.32 463.093 793.695 453.981 792.444C445.048 791.193 436.382 788.96 427.985 785.744V749.028C434.06 751.529 439.956 753.584 445.673 755.192C451.569 756.979 457.644 758.229 463.897 758.944C470.329 759.837 477.118 760.284 484.265 760.284C494.628 760.284 502.31 757.872 507.313 753.048C512.494 748.403 515.085 741.435 515.085 732.144V729.196C515.085 726.516 515.174 723.568 515.353 720.352C515.71 717.136 516.068 714.009 516.425 710.972H515.085C510.797 717.94 505.348 723.3 498.737 727.052C492.126 730.804 484.086 732.68 474.617 732.68C458.001 732.68 444.78 726.069 434.953 712.848C425.305 699.627 420.481 680.867 420.481 656.568C420.481 640.131 422.714 626.284 427.181 615.028C431.648 603.593 437.99 594.928 446.209 589.032C454.606 583.136 464.344 580.188 475.421 580.188ZM491.233 615.832C485.694 615.832 481.049 617.44 477.297 620.656C473.545 623.693 470.776 628.249 468.989 634.324C467.202 640.399 466.309 648.081 466.309 657.372C466.309 671.129 468.364 681.313 472.473 687.924C476.582 694.356 483.014 697.572 491.769 697.572C496.593 697.572 500.613 696.947 503.829 695.696C507.224 694.267 509.904 692.123 511.869 689.264C514.013 686.227 515.621 682.475 516.693 678.008C517.765 673.541 518.301 668.181 518.301 661.928V656.3C518.301 647.188 517.408 639.684 515.621 633.788C513.834 627.713 510.976 623.247 507.045 620.388C503.114 617.351 497.844 615.832 491.233 615.832ZM650.879 561.964C650.879 570.897 650.611 578.937 650.075 586.084C649.539 593.052 649.093 598.144 648.735 601.36H651.147C654.363 596.179 658.026 592.069 662.135 589.032C666.245 585.995 670.89 583.761 676.071 582.332C681.253 580.903 686.791 580.188 692.687 580.188C702.871 580.188 711.894 582.064 719.755 585.816C727.617 589.568 733.781 595.375 738.247 603.236C742.893 611.097 745.215 621.371 745.215 634.056V730H699.923V646.652C699.923 636.289 698.226 628.607 694.831 623.604C691.615 618.423 686.345 615.832 679.019 615.832C671.873 615.832 666.245 617.708 662.135 621.46C658.026 625.033 655.078 630.304 653.291 637.272C651.683 644.24 650.879 652.816 650.879 663V730H605.587V526.32H650.879V561.964ZM856.726 696.768C861.372 696.768 865.66 696.321 869.59 695.428C873.521 694.535 877.541 693.373 881.65 691.944V725.176C876.826 727.32 871.288 729.107 865.034 730.536C858.781 731.965 851.366 732.68 842.79 732.68C833.678 732.68 825.549 731.251 818.402 728.392C811.434 725.355 805.896 720.263 801.786 713.116C797.856 705.791 795.89 695.696 795.89 682.832V616.636H777.13V597.876L799.642 583.404L811.97 552.316H840.914V582.868H880.042V616.636H840.914V681.224C840.914 686.405 842.344 690.336 845.202 693.016C848.061 695.517 851.902 696.768 856.726 696.768Z" fill="white"/>
<path d="M128.342 676.9C109.142 676.9 94.4422 675.3 84.2422 672.1C74.0422 668.9 67.0422 663.9 63.2422 657.1C59.4422 650.5 57.5422 642 57.5422 631.6V589.9C57.5422 583.7 55.8422 578.7 52.4422 574.9C49.2422 571.1 45.0422 568.4 39.8422 566.8C34.6422 565.2 29.2422 564.4 23.6422 564.4V525.1C29.6422 525.1 35.1422 524.3 40.1422 522.7C45.1422 521.1 49.2422 518.4 52.4422 514.6C55.8422 510.6 57.5422 505.6 57.5422 499.6V457.3C57.5422 449.5 58.4422 442.8 60.2422 437.2C62.2422 431.4 65.7422 426.7 70.7422 423.1C75.9422 419.5 83.1422 416.8 92.3422 415C101.542 413.2 113.542 412.3 128.342 412.3V448.9C124.342 448.9 120.342 449.4 116.342 450.4C112.342 451.4 108.942 453.2 106.142 455.8C103.342 458.2 101.942 462.1 101.942 467.5V509.2C101.942 519.8 99.0422 527.8 93.2422 533.2C87.6422 538.6 79.5422 542.1 68.9422 543.7V545.5C79.7422 547.1 87.9422 550.6 93.5422 556C99.1422 561.4 101.942 569.3 101.942 579.7V621.7C101.942 627.1 103.342 631 106.142 633.4C109.142 636 112.642 637.7 116.642 638.5C120.642 639.5 124.542 640.1 128.342 640.3V676.9ZM895.59 640.3C899.59 640.1 903.59 639.5 907.59 638.5C911.59 637.7 914.99 636 917.79 633.4C920.59 631 921.99 627.1 921.99 621.7V579.7C921.99 569.3 924.79 561.4 930.39 556C935.99 550.6 944.09 547.1 954.69 545.5V543.7C944.49 542.1 936.49 538.6 930.69 533.2C924.89 527.8 921.99 519.8 921.99 509.2V467.5C921.99 462.1 920.59 458.2 917.79 455.8C914.99 453.2 911.59 451.4 907.59 450.4C903.59 449.4 899.59 448.9 895.59 448.9V412.3C910.39 412.3 922.39 413.2 931.59 415C940.79 416.8 947.89 419.5 952.89 423.1C957.89 426.7 961.39 431.4 963.39 437.2C965.39 442.8 966.39 449.5 966.39 457.3V499.6C966.39 505.6 967.89 510.6 970.89 514.6C974.09 518.4 978.29 521.1 983.49 522.7C988.89 524.3 994.49 525.1 1000.29 525.1V564.4C994.69 564.4 989.19 565.2 983.79 566.8C978.59 568.4 974.39 571.1 971.19 574.9C967.99 578.7 966.39 583.7 966.39 589.9V631.6C966.39 642 964.49 650.5 960.69 657.1C956.89 663.9 949.89 668.9 939.69 672.1C929.69 675.3 914.99 676.9 895.59 676.9V640.3Z" fill="white"/>
</svg>
